<?xml version="1.0" encoding="iso-8859-1"?>
<!-- Generator: Adobe Illustrator 19.0.0, SVG Export Plug-In . SVG Version: 6.00 Build 0)  -->
<svg version="1.1" id="Capa_1" xmlns="http://www.w3.org/2000/svg" xmlns:xlink="http://www.w3.org/1999/xlink" x="0px" y="0px"
	 viewBox="0 0 512 512" style="enable-background:new 0 0 512 512;" xml:space="preserve">
<path style="fill:#6E6E6E;" d="M260.799,149.399C267.4,135.3,271,120,271,104.399C271,49.799,228.1,0,166,0S61,49.799,61,104.399
	c0,15.601,3.6,30.901,10.201,45C27.4,180,0,232.7,0,286.399c0,47.701,21.7,93,57.7,124.501c7.8,6.899,17.999,10.499,29.099,10.499
	H166c39.6,0,79.2,0,79.2,0c11.1,0,21.299-3.6,29.099-10.499c36-31.501,56.7-76.8,56.7-124.501C331,232.7,304.6,180,260.799,149.399z
	 M166,150c-24.901,0-45-20.099-45-45s20.099-45,45-45s45,20.099,45,45S190.901,150,166,150z"/>
<path style="fill:#5A5A5A;" d="M260.799,149.399C267.4,135.3,271,120,271,104.399C271,49.799,228.1,0,166,0v60
	c24.901,0,45,20.099,45,45s-20.099,45-45,45v271.399c39.6,0,79.2,0,79.2,0c11.1,0,21.299-3.6,29.099-10.499
	c36-31.501,56.7-76.8,56.7-124.501C331,232.7,304.6,180,260.799,149.399z"/>
<path style="fill:#00AB94;" d="M422,332h45c24.853,0,45,20.147,45,45v60c0,24.853-20.147,45-45,45h-45V332z"/>
<rect x="211" y="377" style="fill:#C5D3DD;" width="211" height="60"/>
<rect x="316" y="377" style="fill:#B6C4CF;" width="106" height="60"/>
<g>
	<path style="fill:#00CCB2;" d="M241,482h-45c-24.853,0-45-20.147-45-45v-60c0-24.853,20.147-45,45-45h45V482z"/>
	<path style="fill:#00CCB2;" d="M422,512L422,512c-16.569,0-30-13.431-30-30V332c0-16.569,13.431-30,30-30l0,0
		c16.569,0,30,13.431,30,30v150C452,498.569,438.569,512,422,512z"/>
</g>
<path style="fill:#00DDC1;" d="M241,512L241,512c-16.569,0-30-13.431-30-30V332c0-16.569,13.431-30,30-30l0,0
	c16.569,0,30,13.431,30,30v150C271,498.569,257.569,512,241,512z"/>
<g>
</g>
<g>
</g>
<g>
</g>
<g>
</g>
<g>
</g>
<g>
</g>
<g>
</g>
<g>
</g>
<g>
</g>
<g>
</g>
<g>
</g>
<g>
</g>
<g>
</g>
<g>
</g>
<g>
</g>
</svg>
