<?xml version="1.0" standalone="no"?><svg xmlns="http://www.w3.org/2000/svg" viewBox="300 25 500 200"><path fill="#82fff3" fill-opacity="1" d="M0,32L40,42.7C80,53,160,75,240,101.3C320,128,400,160,480,186.7C560,213,640,235,720,245.3C800,256,880,256,960,218.7C1040,181,1120,107,1200,90.7C1280,75,1360,117,1400,138.7L1440,160L1440,320L1400,320C1360,320,1280,320,1200,320C1120,320,1040,320,960,320C880,320,800,320,720,320C640,320,560,320,480,320C400,320,320,320,240,320C160,320,80,320,40,320L0,320Z"></path></svg>